Input #0, mov,mp4,m4a,3gp,3g2,mj2, from './23.358.111105.test.mp4':
  Metadata:
    major_brand     : isom
    minor_version   : 512
    compatible_brands: isomiso2avc1mp41
    encoder         : Lavf58.76.100
    copyright       : 2023 • phiarchitect.com
    title           : test
  Duration: 00:00:50.21, start: 0.000000, bitrate: 650 kb/s
  Stream #0:0(und): Video: h264 (High 4:4:4 Predictive) (avc1 / 0x31637661), yuv444p, 1920x1080, 641 kb/s, 24 fps, 24 tbr, 12288 tbn, 48 tbc (default)
    Metadata:
      handler_name    : VideoHandler
      vendor_id       : [0][0][0][0]
  Stream #0:1(und): Audio: aac (LC) (mp4a / 0x6134706D), 48000 Hz, stereo, fltp, 2 kb/s (default)
    Metadata:
      handler_name    : SoundHandler
      vendor_id       : [0][0][0][0]
Stream mapping:
  Stream #0:0 -> #0:0 (h264 (native) -> wrapped_avframe (native))
  Stream #0:1 -> #0:1 (aac (native) -> pcm_s16le (native))
Press [q] to stop, [?] for help
Output #0, null, to 'pipe:':
  Metadata:
    major_brand     : isom
    minor_version   : 512
    compatible_brands: isomiso2avc1mp41
    title           : test
    copyright       : 2023 • phiarchitect.com
    encoder         : Lavf58.76.100
  Stream #0:0(und): Video: wrapped_avframe, yuv444p(progressive), 1920x1080, q=2-31, 200 kb/s, 24 fps, 24 tbn (default)
    Metadata:
      handler_name    : VideoHandler
      vendor_id       : [0][0][0][0]
      encoder         : Lavc58.134.100 wrapped_avframe
  Stream #0:1(und): Audio: pcm_s16le, 48000 Hz, stereo, s16, 1536 kb/s (default)
    Metadata:
      handler_name    : SoundHandler
      vendor_id       : [0][0][0][0]
      encoder         : Lavc58.134.100 pcm_s16le
frame=    1 fps=0.0 q=-0.0 size=N/A time=00:00:00.32 bitrate=N/A speed=4.65x    [silencedetect @ 0x5595b1ed7d80] silence_start: -0.0297083
frame=  338 fps=0.0 q=-0.0 size=N/A time=00:00:14.38 bitrate=N/A speed=25.1x    frame=  699 fps=651 q=-0.0 size=N/A time=00:00:29.42 bitrate=N/A speed=27.4x    frame= 1064 fps=676 q=-0.0 size=N/A time=00:00:44.64 bitrate=N/A speed=28.4x    frame= 1205 fps=631 q=-0.0 Lsize=N/A time=00:00:50.20 bitrate=N/A speed=26.3x    
video:631kB audio:8960kB subtitle:0kB other streams:0kB global headers:0kB muxing overhead: unknown
[silencedetect @ 0x5595b1ed7d80] silence_end: 47.796 | silence_duration: 47.8257
